<svg width="26" height="28" viewBox="0 0 26 28" fill="none" xmlns="http://www.w3.org/2000/svg">
<path d="M4.33333 10.5C4.33333 7.20017 4.33333 5.55025 5.28523 4.52513C6.23713 3.5 7.7692 3.5 10.8333 3.5H15.1667C18.2308 3.5 19.7629 3.5 20.7148 4.52513C21.6667 5.55025 21.6667 7.20017 21.6667 10.5V18.4655C21.6667 21.596 21.6667 23.1613 20.752 23.64C19.8374 24.1188 18.6945 23.1517 16.4087 21.2177L15.6772 20.5987C14.392 19.5112 13.7494 18.9674 13 18.9674C12.2506 18.9674 11.608 19.5112 10.3228 20.5987L9.59125 21.2177C7.3055 23.1517 6.16263 24.1188 5.24798 23.64C4.33333 23.1613 4.33333 21.596 4.33333 18.4655V10.5Z" fill="#27AE60"/>
</svg>
