<svg width="20" height="22" viewBox="0 0 20 22" fill="none" xmlns="http://www.w3.org/2000/svg">
<path d="M20 15.1667V1.08333C20 0.40625 19.5714 0 18.8571 0H4.28571C1.85714 0 0 1.76042 0 4.0625V17.6042C0 19.9063 1.85714 21.6667 4.28571 21.6667H18.8571C19.4286 21.6667 20 21.2604 20 20.5833V19.9062C20 19.6354 19.8571 19.3646 19.5714 19.0938C19.4286 18.4167 19.4286 16.5208 19.5714 15.9792C19.8571 15.8438 20 15.5729 20 15.1667ZM13.4411 6.17077C13.4679 6.11956 13.5196 6.09375 13.5714 6.09375C13.6232 6.09375 13.675 6.11956 13.7018 6.17077L14.2009 7.12926L15.317 7.28288C15.4362 7.29938 15.4839 7.43818 15.3978 7.51816L14.5902 8.26423L14.7808 9.31751C14.7969 9.4068 14.7223 9.47917 14.6375 9.47917C14.6152 9.47917 14.592 9.47409 14.5696 9.46309L13.5714 8.96585L12.5732 9.46309C12.5509 9.47409 12.5277 9.47917 12.5054 9.47917C12.4205 9.47917 12.346 9.4068 12.3621 9.31751L12.5527 8.26423L11.7451 7.51816C11.6585 7.43818 11.7063 7.29938 11.8259 7.28288L12.9415 7.12926L13.4411 6.17077ZM10.8567 3.25042C11.467 3.25042 12.0737 3.35579 12.6594 3.564C12.7036 3.56403 12.7474 3.57327 12.7875 3.59107C12.8276 3.60888 12.863 3.63481 12.8914 3.66703C12.9198 3.69925 12.9403 3.73699 12.9516 3.77757C12.9629 3.81815 12.9647 3.86058 12.9568 3.90187C12.9489 3.94317 12.9315 3.98231 12.9059 4.01655C12.8803 4.05078 12.847 4.07926 12.8085 4.09999C12.77 4.12072 12.7272 4.13318 12.6831 4.1365C12.639 4.13982 12.5946 4.13392 12.5531 4.11921C12.5232 4.11921 12.4152 4.11032 12.3688 4.11032C10.0335 4.11032 8.13393 5.91094 8.13393 8.12458C8.13393 10.3378 10.0335 12.1388 12.3688 12.1388C12.4147 12.1388 12.5241 12.1299 12.5531 12.1299C12.7286 12.1299 12.8567 12.2628 12.8567 12.4169C12.8567 12.543 12.7701 12.65 12.6504 12.6885C12.067 12.8946 11.4634 12.9992 10.8562 12.9992C8.02098 12.9996 5.71429 10.8126 5.71429 8.125C5.71429 5.43698 8.02098 3.25042 10.8567 3.25042ZM17 18.9583H4.28571C3.42857 18.9583 2.85714 18.4167 2.85714 17.6042C2.85714 16.7917 3.57143 16.25 4.28571 16.25H17V18.9583Z" fill="#27AE60"/>
</svg>
