<svg width="18" height="21" viewBox="0 0 18 21" fill="none" xmlns="http://www.w3.org/2000/svg">
<path d="M6.75 5.8587L9.75 5.8587" stroke="white" stroke-linecap="round"/>
<path d="M6.75 12.5543L9 12.5543" stroke="white" stroke-linecap="round"/>
<path d="M6.75 9.20654L11.25 9.20654" stroke="white" stroke-linecap="round"/>
<path d="M14.25 9.20655V7.7609C14.25 5.6542 14.25 4.60085 13.7444 3.84418C13.5255 3.51661 13.2443 3.23536 12.9167 3.01649C12.16 2.51089 11.1067 2.51089 9 2.51089V2.51089C6.89331 2.51089 5.83996 2.51089 5.08329 3.01649C4.75572 3.23536 4.47447 3.51661 4.25559 3.84418C3.75 4.60085 3.75 5.6542 3.75 7.76089V12.3261C3.75 14.4328 3.75 15.4862 4.25559 16.2428C4.47447 16.5704 4.75572 16.8516 5.08329 17.0705C5.83996 17.5761 6.89331 17.5761 9 17.5761V17.5761" stroke="white" stroke-linecap="round"/>
<ellipse cx="13.125" cy="14.6467" rx="1.875" ry="2.09239" stroke="white" stroke-linecap="round"/>
<path d="M15.75 17.5761L14.625 16.3206" stroke="white" stroke-linecap="round"/>
</svg>
