<svg width="45" height="45" viewBox="0 0 45 45" fill="none" xmlns="http://www.w3.org/2000/svg">
<path d="M31.9611 21.6056L16.7367 13.9933C15.9388 13.5944 15 14.1746 15 15.0666V29.9334C15 30.8254 15.9388 31.4056 16.7367 31.0067L31.9611 23.3944C32.6982 23.0259 32.6982 21.9741 31.9611 21.6056Z" fill="white"/>
<path d="M16.7367 13.9933L16.0658 15.335V15.335L16.7367 13.9933ZM31.9611 21.6056L32.632 20.2639L32.632 20.2639L31.9611 21.6056ZM31.9611 23.3944L32.632 24.7361H32.632L31.9611 23.3944ZM16.7367 31.0067L16.0658 29.665H16.0658L16.7367 31.0067ZM17.4075 12.6517L32.632 20.2639L31.2903 22.9472L16.0658 15.335L17.4075 12.6517ZM32.632 24.7361L17.4075 32.3483L16.0658 29.665L31.2903 22.0528L32.632 24.7361ZM16.5 15.0666V29.9334H13.5V15.0666H16.5ZM17.4075 32.3483C15.6122 33.2459 13.5 31.9405 13.5 29.9334H16.5C16.5 29.7103 16.2653 29.5653 16.0658 29.665L17.4075 32.3483ZM32.632 20.2639C34.4746 21.1852 34.4746 23.8148 32.632 24.7361L31.2903 22.0528C30.9218 22.237 30.9218 22.7629 31.2903 22.9472L32.632 20.2639ZM16.0658 15.335C16.2653 15.4347 16.5 15.2897 16.5 15.0666H13.5C13.5 13.0595 15.6122 11.7541 17.4075 12.6517L16.0658 15.335Z" fill="white"/>
</svg>
